<svg width="40" height="40" viewBox="0 0 40 40" fill="none" xmlns="http://www.w3.org/2000/svg">
<path d="M29.3748 11.25C29.0686 15.3805 25.9373 18.75 22.4998 18.75C19.0623 18.75 15.9256 15.3813 15.6248 11.25C15.3123 6.95312 18.3592 3.75 22.4998 3.75C26.6404 3.75 29.6873 7.03125 29.3748 11.25Z" stroke="#404040" stroke-width="1.0625" stroke-linecap="round" stroke-linejoin="round"/>
<path d="M22.4999 23.75C15.703 23.75 8.80457 27.5 7.52801 34.5781C7.37176 35.4313 7.85691 36.25 8.75066 36.25H36.2499C37.1436 36.25 37.6264 35.4313 37.4725 34.5781C36.1952 27.5 29.2968 23.75 22.4999 23.75Z" stroke="#404040" stroke-width="1.0625" stroke-miterlimit="10"/>
<path d="M11.25 18.125H2.5M6.875 13.75V22.5V13.75Z" stroke="#404040" stroke-width="1.0625" stroke-linecap="round" stroke-linejoin="round"/>
</svg>
