<svg width="40" height="40" viewBox="0 0 40 40" fill="none" xmlns="http://www.w3.org/2000/svg">
<path d="M16.8813 15V26.2383C16.8943 27.0601 17.2299 27.8438 17.8156 28.4204C18.4014 28.9969 19.1903 29.3201 20.0122 29.3201C20.8341 29.3201 21.623 28.9969 22.2088 28.4204C22.7945 27.8438 23.1301 27.0601 23.1431 26.2383L23.1532 11.5078C23.1617 10.8054 23.0308 10.1083 22.7679 9.45692C22.505 8.80553 22.1154 8.21279 21.6217 7.71308C21.128 7.21337 20.54 6.81662 19.8919 6.54584C19.2437 6.27505 18.5483 6.13562 17.8458 6.13562C17.1433 6.13562 16.4479 6.27505 15.7997 6.54584C15.1516 6.81662 14.5636 7.21337 14.0699 7.71308C13.5762 8.21279 13.1866 8.80553 12.9237 9.45692C12.6608 10.1083 12.5299 10.8054 12.5384 11.5078V26.3375C12.5241 27.3264 12.7065 28.3082 13.075 29.226C13.4435 30.1437 13.9908 30.9791 14.685 31.6834C15.3793 32.3878 16.2066 32.9471 17.1189 33.3288C18.0312 33.7106 19.0103 33.9072 19.9993 33.9072C20.9883 33.9072 21.9674 33.7106 22.8797 33.3288C23.792 32.9471 24.6194 32.3878 25.3136 31.6834C26.0078 30.9791 26.5551 30.1437 26.9236 29.226C27.2922 28.3082 27.4746 27.3264 27.4602 26.3375V12.4797" stroke="#404040" stroke-width="3" stroke-miterlimit="10" stroke-linecap="round"/>
</svg>
