<svg width="40" height="40" viewBox="0 0 40 40" fill="none" xmlns="http://www.w3.org/2000/svg">
<path d="M20.5249 32.5C25.7899 32.5 29.0549 29.7825 29.0549 25.4425C29.0549 22.1775 26.5949 19.735 23.2449 19.4775V19.34C24.5278 19.1468 25.6995 18.5015 26.5485 17.5205C27.3975 16.5395 27.8679 15.2873 27.8749 13.99C27.8749 10.215 24.9699 7.83997 20.3399 7.83997H9.60742V32.5H20.5249ZM14.7699 11.685H19.0099C21.4174 11.685 22.8024 12.8125 22.8024 14.795C22.8024 16.88 21.2299 18.095 18.4774 18.095H14.7699V11.6825V11.685ZM14.7699 28.655V21.495H19.0949C22.1374 21.495 23.7949 22.725 23.7949 25.0325C23.7949 27.39 22.1874 28.655 19.2149 28.655H14.7674H14.7699Z" fill="#404040"/>
</svg>
