<svg width="40" height="40" viewBox="0 0 40 40" fill="none" xmlns="http://www.w3.org/2000/svg">
<path d="M35.2343 29.2186C33.9937 27.9686 30.989 26.1443 29.5312 25.4092C27.6328 24.4529 27.4765 24.3748 25.9843 25.4834C24.989 26.2233 24.3273 26.8842 23.1625 26.6358C21.9976 26.3873 19.4664 24.9865 17.25 22.7772C15.0336 20.5678 13.5515 17.9631 13.3023 16.8022C13.0531 15.6412 13.725 14.9873 14.4578 13.9897C15.4906 12.5834 15.4125 12.349 14.5296 10.4506C13.8414 8.97404 11.964 5.99747 10.7093 4.7631C9.36715 3.43732 9.36715 3.67169 8.5023 4.03107C7.79822 4.32731 7.12274 4.68741 6.48433 5.10685C5.23433 5.93732 4.54058 6.62716 4.05543 7.66388C3.57027 8.7006 3.3523 11.1311 5.85777 15.6826C8.36324 20.2342 10.1211 22.5615 13.7593 26.1897C17.3976 29.8178 20.1953 31.7686 24.2851 34.0623C29.3445 36.8959 31.2851 36.3436 32.325 35.8592C33.3648 35.3748 34.0578 34.6873 34.8898 33.4373C35.3103 32.8 35.6712 32.1253 35.9679 31.4217C36.3281 30.56 36.5625 30.56 35.2343 29.2186Z" stroke="#404040" stroke-width="2.5625" stroke-miterlimit="10"/>
</svg>
