<svg width="40" height="40" viewBox="0 0 40 40" fill="none" xmlns="http://www.w3.org/2000/svg">
<path fill-rule="evenodd" clip-rule="evenodd" d="M27.4025 30.9125C28.1155 30.1527 28.572 29.1882 28.7075 28.155L36.4825 31.61C36.8631 31.7796 37.28 31.8514 37.6953 31.8188C38.1107 31.7863 38.5113 31.6504 38.8608 31.4236C39.2104 31.1968 39.4976 30.8863 39.6966 30.5202C39.8955 30.1541 39.9998 29.7442 40 29.3275V10.6725C39.9996 10.2562 39.8953 9.84659 39.6965 9.48081C39.4977 9.11504 39.2107 8.80471 38.8615 8.57798C38.5124 8.35126 38.1121 8.21531 37.6971 8.18249C37.2821 8.14967 36.8655 8.221 36.485 8.39002L28.7075 11.845C28.5486 10.6427 27.9582 9.53918 27.0462 8.73984C26.1342 7.94051 24.9627 7.49988 23.75 7.50002H10.68L12.465 10H23.75C24.413 10 25.0489 10.2634 25.5178 10.7323C25.9866 11.2011 26.25 11.837 26.25 12.5V27.5C26.2505 27.9565 26.126 28.4043 25.89 28.795L27.4025 30.9125ZM3.57 10.45C3.23961 10.6802 2.96976 10.9868 2.78345 11.3437C2.59714 11.7007 2.49989 12.0974 2.5 12.5V27.5C2.5 28.1631 2.76339 28.7989 3.23223 29.2678C3.70107 29.7366 4.33696 30 5 30H17.535L19.32 32.5H5C3.67392 32.5 2.40215 31.9732 1.46447 31.0356C0.526784 30.0979 0 28.8261 0 27.5V12.5C0 10.8125 0.835 9.32002 2.1175 8.41502L3.5675 10.45H3.57ZM37.5 29.325L28.75 25.4375V14.5625L37.5 10.6725V29.3275V29.325ZM26.4825 38.225L1.4825 3.22502L3.5175 1.77502L16.0175 19.275L28.5175 36.775L26.4825 38.225Z" fill="#404040"/>
</svg>
