<svg width="60" height="60" viewBox="0 0 60 60" fill="none" xmlns="http://www.w3.org/2000/svg">
<path d="M43.9207 36.1851L53.6133 43.0078C53.8988 43.1347 54.2114 43.1883 54.5229 43.1636C54.8343 43.139 55.1346 43.0369 55.3966 42.8667C55.6586 42.6965 55.8739 42.4635 56.0229 42.1889C56.1719 41.9144 56.25 41.6069 56.25 41.2945V18.7054C56.25 18.393 56.1719 18.0855 56.0229 17.811C55.8739 17.5364 55.6586 17.3034 55.3966 17.1332C55.1346 16.963 54.8343 16.8609 54.5229 16.8363C54.2114 16.8116 53.8988 16.8652 53.6133 16.9921L43.9207 23.8148C43.6749 23.9878 43.4743 24.2174 43.3359 24.4841C43.1974 24.7509 43.1251 25.047 43.125 25.3476V34.6523C43.1251 34.9529 43.1974 35.249 43.3359 35.5158C43.4743 35.7825 43.6749 36.0121 43.9207 36.1851V36.1851Z" stroke="#404040" stroke-linecap="round" stroke-linejoin="round"/>
<path d="M31.4062 45H9.84375C8.22901 44.9954 6.68174 44.3519 5.53994 43.2101C4.39815 42.0683 3.75464 40.521 3.75 38.9062V21.0938C3.75464 19.479 4.39815 17.9317 5.53994 16.7899C6.68174 15.6481 8.22901 15.0046 9.84375 15H31.4625C33.0622 15.0049 34.595 15.6426 35.7262 16.7738C36.8574 17.905 37.4951 19.4378 37.5 21.0375V38.9062C37.4954 40.521 36.8519 42.0683 35.7101 43.2101C34.5683 44.3519 33.021 44.9954 31.4062 45Z" stroke="#404040" stroke-miterlimit="10"/>
</svg>
