<svg width="40" height="40" viewBox="0 0 40 40" fill="none" xmlns="http://www.w3.org/2000/svg">
<g clip-path="url(#clip0_163_12865)">
<path d="M19.845 5.04C19.894 5.01313 19.9491 4.99936 20.005 5C20.06 4.99978 20.1142 5.01355 20.1625 5.04C20.2197 5.07428 20.2663 5.12357 20.2975 5.1825L37.44 34.35C37.53 34.5 37.5275 34.66 37.445 34.8075C37.4133 34.868 37.3669 34.9196 37.31 34.9575C37.2605 34.9879 37.203 35.0027 37.145 35H2.86499C2.80696 35.0028 2.74943 34.988 2.69999 34.9575C2.64312 34.9196 2.5967 34.868 2.56499 34.8075C2.52379 34.7381 2.50246 34.6587 2.50335 34.578C2.50423 34.4974 2.52728 34.4185 2.56999 34.35L19.71 5.1825C19.7412 5.12364 19.7879 5.07438 19.845 5.04ZM22.455 3.915C22.2075 3.48391 21.8507 3.12575 21.4205 2.87668C20.9903 2.62762 20.5021 2.49646 20.005 2.49646C19.5079 2.49646 19.0196 2.62762 18.5895 2.87668C18.1593 3.12575 17.8025 3.48391 17.555 3.915L0.412487 33.0825C-0.730013 35.0275 0.639987 37.5 2.86249 37.5H37.145C39.3675 37.5 40.74 35.025 39.595 33.0825L22.455 3.915Z" fill="#404040"/>
<path d="M17.5049 30C17.5049 29.6717 17.5695 29.3467 17.6952 29.0433C17.8208 28.74 18.005 28.4644 18.2371 28.2323C18.4693 28.0001 18.7449 27.816 19.0482 27.6903C19.3515 27.5647 19.6766 27.5 20.0049 27.5C20.3332 27.5 20.6583 27.5647 20.9616 27.6903C21.2649 27.816 21.5405 28.0001 21.7726 28.2323C22.0048 28.4644 22.1889 28.74 22.3146 29.0433C22.4402 29.3467 22.5049 29.6717 22.5049 30C22.5049 30.6631 22.2415 31.299 21.7726 31.7678C21.3038 32.2367 20.6679 32.5 20.0049 32.5C19.3418 32.5 18.706 32.2367 18.2371 31.7678C17.7683 31.299 17.5049 30.6631 17.5049 30ZM17.7499 14.9875C17.7166 14.6722 17.75 14.3533 17.8479 14.0516C17.9458 13.75 18.106 13.4723 18.3182 13.2365C18.5303 13.0008 18.7897 12.8123 19.0794 12.6833C19.3691 12.5542 19.6827 12.4875 19.9999 12.4875C20.317 12.4875 20.6306 12.5542 20.9204 12.6833C21.2101 12.8123 21.4694 13.0008 21.6816 13.2365C21.8937 13.4723 22.054 13.75 22.1519 14.0516C22.2498 14.3533 22.2832 14.6722 22.2499 14.9875L21.3749 23.755C21.3455 24.0995 21.1879 24.4203 20.9333 24.6541C20.6787 24.8879 20.3456 25.0177 19.9999 25.0177C19.6542 25.0177 19.3211 24.8879 19.0665 24.6541C18.8119 24.4203 18.6543 24.0995 18.6249 23.755L17.7499 14.9875Z" fill="#404040"/>
</g>
<defs>
<clipPath id="clip0_163_12865">
<rect width="40" height="40" fill="white"/>
</clipPath>
</defs>
</svg>
