<svg width="36" height="34" viewBox="0 0 36 34" fill="none" xmlns="http://www.w3.org/2000/svg">
<path d="M4.01955 32.6064H31.9807C32.4349 32.6064 32.8812 32.4885 33.2761 32.2643C33.6711 32.0401 34.0011 31.7173 34.234 31.3274C34.4668 30.9375 34.5945 30.4938 34.6046 30.0398C34.6147 29.5858 34.5068 29.1369 34.2915 28.737L20.3118 2.77414C19.32 0.933359 16.6803 0.933359 15.6885 2.77414L1.70873 28.737C1.49344 29.1369 1.38557 29.5858 1.39567 30.0398C1.40576 30.4938 1.53347 30.9375 1.76632 31.3274C1.99917 31.7173 2.32919 32.0401 2.72413 32.2643C3.11907 32.4885 3.56541 32.6064 4.01955 32.6064V32.6064Z" stroke="black" stroke-width="2" stroke-linecap="round" stroke-linejoin="round"/>
<path d="M17.5291 12.028L18 22.0358L18.47 12.0321C18.4729 11.9682 18.4628 11.9043 18.4401 11.8444C18.4175 11.7845 18.3829 11.7299 18.3385 11.6838C18.294 11.6377 18.2406 11.6012 18.1816 11.5765C18.1225 11.5518 18.0591 11.5393 17.9951 11.5399V11.5399C17.9322 11.5406 17.87 11.5538 17.8123 11.5788C17.7546 11.6038 17.7025 11.6401 17.6591 11.6856C17.6157 11.7311 17.5818 11.7849 17.5595 11.8437C17.5371 11.9025 17.5268 11.9652 17.5291 12.028V12.028Z" stroke="black" stroke-width="2" stroke-linecap="round" stroke-linejoin="round"/>
<path d="M18 28.5869C17.6755 28.5869 17.3583 28.4907 17.0885 28.3104C16.8187 28.1301 16.6084 27.8739 16.4843 27.5741C16.3601 27.2743 16.3276 26.9445 16.3909 26.6262C16.4542 26.308 16.6105 26.0156 16.8399 25.7862C17.0693 25.5567 17.3617 25.4005 17.6799 25.3372C17.9982 25.2739 18.3281 25.3064 18.6278 25.4305C18.9276 25.5547 19.1839 25.765 19.3641 26.0348C19.5444 26.3046 19.6406 26.6218 19.6406 26.9463C19.6406 27.3814 19.4678 27.7987 19.1601 28.1064C18.8524 28.4141 18.4351 28.5869 18 28.5869Z" fill="black"/>
</svg>
