<svg width="42" height="32" viewBox="0 0 42 32" fill="none" xmlns="http://www.w3.org/2000/svg">
<path d="M34.0359 7.75C33.7743 11.5628 31.0807 14.5 28.1432 14.5C25.2058 14.5 22.5076 11.5638 22.2505 7.75C21.9827 3.78344 24.6049 1 28.1432 1C31.6815 1 34.3038 3.85562 34.0359 7.75Z" stroke="black" stroke-width="2" stroke-linecap="round" stroke-linejoin="round"/>
<path d="M28.1436 20.5C22.325 20.5 16.7296 23.5347 15.3278 29.4447C15.1421 30.2266 15.6091 31 16.3742 31H39.9138C40.679 31 41.1433 30.2266 40.9602 29.4447C39.5585 23.44 33.9631 20.5 28.1436 20.5Z" stroke="black" stroke-width="2" stroke-miterlimit="10"/>
<path d="M16.0006 9.43188C15.7916 12.4769 13.6149 14.875 11.2686 14.875C8.92218 14.875 6.74188 12.4778 6.53653 9.43188C6.32314 6.26406 8.44184 4 11.2686 4C14.0953 4 16.214 6.32219 16.0006 9.43188Z" stroke="black" stroke-width="2" stroke-linecap="round" stroke-linejoin="round"/>
<path d="M16.5362 20.6876C14.9246 19.9123 13.1497 19.6141 11.2685 19.6141C6.62573 19.6141 2.15263 22.0376 1.03212 26.7579C0.884805 27.3823 1.25801 28.0001 1.86871 28.0001H11.8935" stroke="black" stroke-width="2" stroke-miterlimit="10" stroke-linecap="round"/>
</svg>
