<svg width="40" height="40" viewBox="0 0 40 40" fill="none" xmlns="http://www.w3.org/2000/svg">
<path d="M31.7969 10H14.4531C11.9937 10 10 11.9937 10 14.4531V31.7969C10 34.2563 11.9937 36.25 14.4531 36.25H31.7969C34.2563 36.25 36.25 34.2563 36.25 31.7969V14.4531C36.25 11.9937 34.2563 10 31.7969 10Z" stroke="#404040" stroke-linejoin="round"/>
<path d="M29.9609 10L30 8.125C29.9967 6.96569 29.5347 5.85481 28.7149 5.03505C27.8952 4.21529 26.7843 3.7533 25.625 3.75H8.75C7.42512 3.75392 6.15563 4.28196 5.21879 5.21879C4.28196 6.15563 3.75392 7.42512 3.75 8.75V25.625C3.7533 26.7843 4.21529 27.8952 5.03505 28.7149C5.85481 29.5347 6.96569 29.9967 8.125 30H10" stroke="#404040" stroke-linecap="round" stroke-linejoin="round"/>
</svg>
