<svg width="45" height="52" viewBox="0 0 45 52" fill="none" xmlns="http://www.w3.org/2000/svg">
<path d="M30.4041 41.3846V43.3077C30.4041 45.3478 29.6066 47.3044 28.1871 48.747C26.7676 50.1896 24.8423 51 22.8347 51C20.8272 51 18.9019 50.1896 17.4824 48.747C16.0629 47.3044 15.2654 45.3478 15.2654 43.3077V41.3846M43.1395 37.47C40.1023 33.6923 37.958 31.7692 37.958 21.3546C37.958 11.8173 33.1657 8.41947 29.2214 6.76923C28.6974 6.55048 28.2042 6.04808 28.0446 5.5012C27.3527 3.10817 25.4131 1 22.8347 1C20.2564 1 18.3156 3.10938 17.6308 5.50361C17.4712 6.05649 16.978 6.55048 16.454 6.76923C12.505 8.42187 7.71736 11.8077 7.71736 21.3546C7.71144 31.7692 5.56719 33.6923 2.52999 37.47C1.27159 39.0349 2.37388 41.3846 4.5749 41.3846H41.1064C43.2956 41.3846 44.3908 39.0276 43.1395 37.47Z" stroke="#404040" stroke-width="2" stroke-linecap="round" stroke-linejoin="round"/>
<ellipse cx="16.3851" cy="24.1881" rx="0.992063" ry="1.00818" fill="#404040"/>
<ellipse cx="28.7858" cy="24.1881" rx="0.992063" ry="1.00818" fill="#404040"/>
<path d="M16.385 27.2126C21.3369 25.8606 24.0619 25.8762 28.7858 27.2126" stroke="#404040"/>
</svg>
