<svg width="40" height="40" viewBox="0 0 40 40" fill="none" xmlns="http://www.w3.org/2000/svg">
<path d="M5.37677 23.8413C6.85496 23.8468 9.72093 23.1461 11.0225 22.7171C12.7167 22.1579 12.8558 22.1115 13.0836 20.5679C13.2352 19.5381 13.2357 18.7531 14.0745 18.2092C14.9133 17.6653 17.247 16.9943 19.8737 16.99C22.5004 16.9858 24.9258 17.652 25.7627 18.1931C26.5996 18.7341 26.5889 19.521 26.7461 20.548C26.9677 21.9956 27.1531 22.0883 28.8038 22.691C30.0886 23.1588 32.9694 23.8111 34.4466 23.799C36.0301 23.7892 35.891 23.6501 36.191 22.9235C36.4331 22.3298 36.6203 21.7152 36.7502 21.0874C36.9993 19.8526 37.0016 19.0315 36.6743 18.1282C36.347 17.225 35.0339 15.6532 30.8456 14.439C26.6573 13.2248 24.2328 12.8869 19.9202 12.893C15.6076 12.8992 12.7894 13.4019 9.00068 14.468C4.31617 15.7892 3.49217 17.2688 3.16247 18.1734C2.83277 19.078 2.8295 19.8974 3.07752 21.133C3.20617 21.7609 3.39241 22.3755 3.63386 22.9691C3.93152 23.6943 3.79241 23.8334 5.37677 23.8413Z" stroke="#404040" stroke-width="3.02373" stroke-miterlimit="10"/>
</svg>
