<svg width="41" height="41" viewBox="0 0 41 41" fill="none" xmlns="http://www.w3.org/2000/svg">
<path d="M33.3125 17.7173V33.3125C33.3125 34.3319 32.9075 35.3096 32.1867 36.0304C31.4658 36.7513 30.4882 37.1562 29.4688 37.1562H11.5312C10.5118 37.1562 9.53415 36.7513 8.81331 36.0304C8.09247 35.3096 7.6875 34.3319 7.6875 33.3125V7.6875C7.6875 6.66807 8.09247 5.6904 8.81331 4.96956C9.53415 4.24872 10.5118 3.84375 11.5312 3.84375H19.439C20.1183 3.84385 20.7699 4.11374 21.2503 4.59408L32.5622 15.9059C33.0425 16.3864 33.3124 17.0379 33.3125 17.7173Z" stroke="#404040" stroke-linejoin="round"/>
<path d="M20.5 4.48438V14.0938C20.5 14.7734 20.77 15.4251 21.2505 15.9057C21.7311 16.3863 22.3829 16.6562 23.0625 16.6562H32.6719" stroke="#404040" stroke-linecap="round" stroke-linejoin="round"/>
</svg>
