<svg width="40" height="40" viewBox="0 0 40 40" fill="none" xmlns="http://www.w3.org/2000/svg">
<g clip-path="url(#clip0_163_12740)">
<path fill-rule="evenodd" clip-rule="evenodd" d="M35.0002 11.25V35C35.0002 36.3261 34.4734 37.5979 33.5357 38.5355C32.598 39.4732 31.3262 40 30.0002 40H22.5002V37.5H30.0002C30.6632 37.5 31.2991 37.2366 31.7679 36.7678C32.2368 36.2989 32.5002 35.663 32.5002 35V11.25H27.5002C26.5056 11.25 25.5518 10.8549 24.8485 10.1517C24.1452 9.44839 23.7502 8.49456 23.7502 7.5V2.5H10.0002C9.33712 2.5 8.70123 2.76339 8.23239 3.23223C7.76355 3.70107 7.50016 4.33696 7.50016 5V27.5H5.00016V5C5.00016 3.67392 5.52694 2.40215 6.46462 1.46447C7.40231 0.526784 8.67408 0 10.0002 0L23.7502 0L35.0002 11.25ZM8.19516 32.81C8.15485 32.382 8.03621 31.9651 7.84516 31.58C7.65286 31.1926 7.38612 30.8468 7.06016 30.5625C6.70809 30.2583 6.30065 30.0249 5.86016 29.875C5.34848 29.7009 4.81059 29.6163 4.27016 29.625C3.36766 29.625 2.59516 29.815 1.95516 30.1975C1.32367 30.5683 0.816426 31.1182 0.497657 31.7775C0.151768 32.5205 -0.0184602 33.3331 0.000157465 34.1525V35.4175C0.000157465 36.0975 0.0876575 36.7175 0.262657 37.28C0.437657 37.84 0.705157 38.3225 1.06266 38.73C1.41766 39.135 1.86266 39.45 2.39516 39.6725C2.93266 39.8925 3.56016 40.0025 4.27766 40.0025C4.94766 40.0025 5.52766 39.91 6.02016 39.725C6.47029 39.5695 6.88039 39.3162 7.221 38.9834C7.56162 38.6506 7.82429 38.2464 7.99016 37.8C8.15266 37.365 8.23266 36.905 8.23266 36.4225V34.43H4.29266V35.9025H6.35016V36.54C6.35016 36.87 6.27516 37.175 6.12516 37.4475C5.96607 37.7287 5.72905 37.9579 5.44266 38.1075C5.08715 38.2796 4.69488 38.362 4.30016 38.3475C3.83992 38.3663 3.3856 38.2385 3.00266 37.9825C2.65162 37.7217 2.38618 37.3622 2.24016 36.95C2.07073 36.4555 1.98949 35.9351 2.00016 35.4125V34.165C2.00016 33.2525 2.19516 32.545 2.58516 32.04C2.98016 31.54 3.53516 31.2875 4.24766 31.2875C4.50191 31.2842 4.75506 31.3213 4.99766 31.3975C5.22266 31.4725 5.42266 31.575 5.58766 31.7125C5.75764 31.843 5.90177 32.0041 6.01266 32.1875C6.12821 32.3806 6.2102 32.592 6.25516 32.8125H8.19516V32.81ZM11.5777 39.8125V29.815H9.60016V39.815H11.5752L11.5777 39.8125ZM15.3102 35.8375V39.8125H13.3327V29.815H19.7002V31.4475H15.3102V34.24H19.3227V35.835H15.3102V35.8375Z" fill="#404040"/>
</g>
<defs>
<clipPath id="clip0_163_12740">
<rect width="40" height="40" fill="white"/>
</clipPath>
</defs>
</svg>
