<svg width="13" height="11" viewBox="0 0 13 11" fill="none" xmlns="http://www.w3.org/2000/svg">
<path d="M6.11651 10.8374C5.93377 10.8372 5.75533 10.7868 5.6044 10.6927C3.36848 9.30689 2.4003 8.35667 1.86629 7.76258C0.728267 6.49622 0.183439 5.1961 0.198802 3.78817C0.216726 2.17476 1.63442 0.862427 3.35909 0.862427C4.61319 0.862427 5.48178 1.50742 5.98763 2.04462C6.00365 2.06147 6.02345 2.07497 6.04569 2.08423C6.06792 2.09349 6.09207 2.09828 6.11651 2.09828C6.14095 2.09828 6.1651 2.09349 6.18734 2.08423C6.20957 2.07497 6.22937 2.06147 6.24539 2.04462C6.75124 1.50691 7.61984 0.862427 8.87394 0.862427C10.5986 0.862427 12.0163 2.17476 12.0342 3.78843C12.0496 5.19662 11.5042 6.49674 10.3667 7.76284C9.83272 8.35693 8.86455 9.30715 6.62862 10.693C6.47766 10.787 6.29922 10.8373 6.11651 10.8374Z" fill="#DA0F0F"/>
</svg>
