<svg width="40" height="40" viewBox="0 0 40 40" fill="none" xmlns="http://www.w3.org/2000/svg">
<path fill-rule="evenodd" clip-rule="evenodd" d="M6.81886 18.1891C6.70245 18.3052 6.61009 18.4432 6.54708 18.595C6.48406 18.7469 6.45162 18.9097 6.45162 19.0741C6.45162 19.2385 6.48406 19.4013 6.54708 19.5532C6.61009 19.705 6.70245 19.843 6.81886 19.9591L14.3189 27.4591C14.5536 27.6938 14.8719 27.8257 15.2039 27.8257C15.5358 27.8257 15.8541 27.6938 16.0889 27.4591C16.3236 27.2244 16.4554 26.906 16.4554 26.5741C16.4554 26.2422 16.3236 25.9238 16.0889 25.6891L10.7214 20.3241L32.7039 20.3241C33.0354 20.3241 33.3533 20.1924 33.5877 19.958C33.8222 19.7236 33.9539 19.4056 33.9539 19.0741C33.9539 18.7426 33.8222 18.4246 33.5877 18.1902C33.3533 17.9558 33.0354 17.8241 32.7039 17.8241L10.7214 17.8241L16.0889 12.4591C16.3236 12.2244 16.4554 11.906 16.4554 11.5741C16.4554 11.2422 16.3236 10.9238 16.0889 10.6891C15.8541 10.4544 15.5358 10.3225 15.2039 10.3225C14.8719 10.3225 14.5536 10.4544 14.3189 10.6891L6.81886 18.1891Z" fill="#404040"/>
</svg>
