<svg width="11" height="13" viewBox="0 0 11 13" fill="none" xmlns="http://www.w3.org/2000/svg">
<path d="M11 6.07237C11 5.89956 10.9588 5.7374 10.8897 5.59001C10.429 4.10379 8.27216 4.21235 5.2042 4.13986C4.69127 4.12783 4.98466 3.52214 5.16469 2.19258C5.28184 1.32785 4.72425 0 3.78703 0C2.24171 0 3.72828 1.21894 2.36195 4.23331C1.63189 5.8439 0 4.94172 0 6.55953V10.2421C0 10.8719 0.0618402 11.4772 0.94753 11.5768C1.80608 11.6734 1.613 12.2852 2.85152 12.2852H9.05066C9.68212 12.2852 10.1957 11.7713 10.1957 11.1398C10.1957 10.878 10.104 10.6396 9.95593 10.4465C10.3064 10.2504 10.5468 9.88001 10.5468 9.45056C10.5468 9.18946 10.4555 8.95103 10.3077 8.75829C10.6592 8.56247 10.9004 8.19177 10.9004 7.76163C10.9004 7.44934 10.7739 7.16625 10.5702 6.95909C10.8303 6.74917 11 6.43173 11 6.07237V6.07237Z" fill="#FFDB5E"/>
<path d="M6.8994 7.2174H9.85536C10.2573 7.2174 10.6345 7.00233 10.84 6.65637C10.9245 6.51379 10.8774 6.3293 10.7345 6.24444C10.5919 6.15958 10.4075 6.20734 10.3226 6.34991C10.2254 6.51448 10.0457 6.61617 9.85501 6.61617H6.82828C6.52835 6.61617 6.28443 6.37225 6.28443 6.07232C6.28443 5.7724 6.52835 5.52847 6.82828 5.52847H8.8508C9.01674 5.52847 9.15141 5.3938 9.15141 5.22786C9.15141 5.06192 9.01674 4.92725 8.8508 4.92725H6.82794C6.19648 4.92725 5.68286 5.44086 5.68286 6.07232C5.68286 6.42447 5.84605 6.73607 6.09685 6.94633C5.88556 7.15418 5.75398 7.44277 5.75398 7.76159C5.75398 8.11477 5.9182 8.4274 6.17037 8.63731C5.96046 8.84482 5.83025 9.13238 5.83025 9.45051C5.83025 9.8353 6.0223 10.1747 6.31432 10.3826C6.13429 10.5849 6.02161 10.8484 6.02161 11.1398C6.02161 11.7712 6.53523 12.2849 7.16668 12.2849H9.05075C9.45271 12.2849 9.83028 12.0701 10.0357 11.7242C10.1206 11.5816 10.0735 11.3971 9.93094 11.3122C9.78802 11.2281 9.60353 11.2745 9.51902 11.417C9.4211 11.5816 9.24142 11.6836 9.05075 11.6836H7.16668C6.86676 11.6836 6.62283 11.4397 6.62283 11.1398C6.62283 10.8399 6.86676 10.5959 7.16668 10.5959H9.40186C9.80382 10.5959 10.1817 10.3809 10.3868 10.0349C10.4717 9.89198 10.4246 9.70749 10.2821 9.62298C10.1381 9.53675 9.9543 9.58519 9.87013 9.72776C9.77084 9.89508 9.59563 9.99471 9.40186 9.99471H6.97532C6.6754 9.99471 6.43147 9.75044 6.43147 9.45051C6.43147 9.15059 6.6754 8.90666 6.97532 8.90666H9.75504C10.157 8.90666 10.5346 8.69194 10.74 8.34598C10.8249 8.2034 10.7778 8.01891 10.6352 7.93405C10.492 7.84954 10.3078 7.89626 10.2233 8.03884C10.124 8.20581 9.94881 8.30544 9.75504 8.30544H6.8994C6.59947 8.30544 6.35555 8.06151 6.35555 7.76159C6.35555 7.46166 6.59913 7.2174 6.8994 7.2174V7.2174Z" fill="#EE9547"/>
</svg>
