<svg width="40" height="40" viewBox="0 0 40 40" fill="none" xmlns="http://www.w3.org/2000/svg">
<path d="M15.885 13.75H10C8.01088 13.75 6.10322 14.5402 4.6967 15.9467C3.29018 17.3532 2.5 19.2609 2.5 21.25C2.5 23.2391 3.29018 25.1468 4.6967 26.5533C6.10322 27.9598 8.01088 28.75 10 28.75H17.5C18.7002 28.7506 19.883 28.4632 20.9491 27.9119C22.0151 27.3606 22.9333 26.5615 23.6265 25.5817C24.3197 24.602 24.7676 23.4701 24.9327 22.2814C25.0977 21.0926 24.9751 19.8815 24.575 18.75H22.5C22.285 18.75 22.075 18.775 21.875 18.8275C22.2966 19.5888 22.5123 20.4469 22.5006 21.317C22.4889 22.1872 22.2504 23.0392 21.8085 23.7889C21.3666 24.5386 20.7367 25.16 19.9811 25.5916C19.2254 26.0232 18.3702 26.2502 17.5 26.25H10C8.67392 26.25 7.40215 25.7232 6.46447 24.7855C5.52678 23.8478 5 22.5761 5 21.25C5 19.9239 5.52678 18.6521 6.46447 17.7145C7.40215 16.7768 8.67392 16.25 10 16.25H13.8375C14.3825 15.31 15.075 14.465 15.8875 13.75H15.885Z" fill="#404040"/>
<path d="M22.5 13.75C21.2998 13.7494 20.117 14.0368 19.051 14.5881C17.9849 15.1394 17.0667 15.9385 16.3735 16.9183C15.6803 17.898 15.2324 19.0299 15.0673 20.2186C14.9023 21.4074 15.025 22.6185 15.425 23.75H18.17C17.7312 22.9899 17.5002 22.1277 17.5002 21.25C17.5001 20.3724 17.7312 19.5101 18.17 18.7501C18.6088 17.99 19.24 17.3588 20.0001 16.9199C20.7602 16.4811 21.6224 16.25 22.5 16.25H30C31.3261 16.25 32.5979 16.7768 33.5356 17.7145C34.4732 18.6521 35 19.9239 35 21.25C35 22.5761 34.4732 23.8479 33.5356 24.7855C32.5979 25.7232 31.3261 26.25 30 26.25H26.1625C25.6186 27.1885 24.9263 28.0328 24.1125 28.75H30C30.9849 28.75 31.9602 28.556 32.8702 28.1791C33.7801 27.8022 34.6069 27.2497 35.3033 26.5533C35.9998 25.8569 36.5522 25.0301 36.9291 24.1201C37.306 23.2102 37.5 22.2349 37.5 21.25C37.5 20.2651 37.306 19.2898 36.9291 18.3799C36.5522 17.4699 35.9998 16.6431 35.3033 15.9467C34.6069 15.2503 33.7801 14.6978 32.8702 14.3209C31.9602 13.944 30.9849 13.75 30 13.75H22.5Z" fill="#404040"/>
</svg>
