<svg width="40" height="40" viewBox="0 0 40 40" fill="none" xmlns="http://www.w3.org/2000/svg">
<path d="M20 12.5C22.7614 12.5 25 10.2614 25 7.5C25 4.73858 22.7614 2.5 20 2.5C17.2386 2.5 15 4.73858 15 7.5C15 10.2614 17.2386 12.5 20 12.5Z" stroke="#404040" stroke-width="1.9375" stroke-linecap="round" stroke-linejoin="round"/>
<path d="M21.25 12.8125C21.25 12.626 21.1759 12.4472 21.0441 12.3153C20.9122 12.1835 20.7334 12.1094 20.5469 12.1094H19.4531C19.2666 12.1094 19.0878 12.1835 18.9559 12.3153C18.8241 12.4472 18.75 12.626 18.75 12.8125V35.7469C18.7501 36.079 18.8163 36.4077 18.9445 36.7141L19.7312 38.5891C19.7576 38.6373 19.7965 38.6776 19.8438 38.7056C19.8911 38.7337 19.945 38.7485 20 38.7485C20.055 38.7485 20.1089 38.7337 20.1562 38.7056C20.2035 38.6776 20.2424 38.6373 20.2688 38.5891L21.0555 36.7141C21.1837 36.4077 21.2499 36.079 21.25 35.7469V12.8125Z" fill="#404040"/>
<path d="M21.875 7.5C22.9105 7.5 23.75 6.66053 23.75 5.625C23.75 4.58947 22.9105 3.75 21.875 3.75C20.8395 3.75 20 4.58947 20 5.625C20 6.66053 20.8395 7.5 21.875 7.5Z" fill="#404040"/>
</svg>
