<svg width="40" height="40" viewBox="0 0 40 40" fill="none" xmlns="http://www.w3.org/2000/svg">
<g clip-path="url(#clip0_163_12870)">
<path d="M10.365 0.365002C10.4813 0.248997 10.6193 0.157052 10.7712 0.094423C10.923 0.0317937 11.0857 -0.000291374 11.25 1.99373e-06H28.75C29.0815 1.99373e-06 29.3995 0.131698 29.6339 0.366119C29.8683 0.600539 30 0.918481 30 1.25C30 2.95 29.145 4.185 28.385 4.9475C28.07 5.26 27.76 5.5075 27.5 5.6925V16.77L27.695 16.89C28.2025 17.2075 28.885 17.675 29.5725 18.2775C30.9 19.4375 32.5 21.3175 32.5 23.75C32.5 24.0815 32.3683 24.3995 32.1339 24.6339C31.8995 24.8683 31.5815 25 31.25 25H21.25V36.25C21.25 36.94 20.69 40 20 40C19.31 40 18.75 36.94 18.75 36.25V25H8.75C8.41848 25 8.10054 24.8683 7.86612 24.6339C7.6317 24.3995 7.5 24.0815 7.5 23.75C7.5 21.3175 9.1 19.4375 10.425 18.2775C11.0717 17.7159 11.766 17.2115 12.5 16.77V5.6925C12.1847 5.46929 11.8887 5.22008 11.615 4.9475C10.855 4.185 10 2.9475 10 1.25C9.99971 1.08574 10.0318 0.92303 10.0944 0.771176C10.1571 0.619321 10.249 0.4813 10.365 0.365002ZM14.315 3.885L14.31 3.8825L14.315 3.885ZM14.31 3.8825L14.315 3.885C14.5211 3.98941 14.6941 4.14888 14.8151 4.3457C14.936 4.54252 15 4.769 15 5V17.5C15 17.7319 14.9354 17.9593 14.8136 18.1567C14.6917 18.354 14.5174 18.5136 14.31 18.6175H14.305L14.275 18.635L14.14 18.71C13.4029 19.1212 12.7101 19.607 12.0725 20.16C11.2775 20.855 10.61 21.65 10.26 22.5H29.74C29.39 21.65 28.7225 20.855 27.9275 20.16C27.2511 19.5729 26.5126 19.0615 25.725 18.635L25.695 18.62H25.69C25.4823 18.5159 25.3076 18.356 25.1858 18.1581C25.0639 17.9603 24.9995 17.7324 25 17.5V5C24.9991 4.75828 25.0682 4.52146 25.1991 4.31824C25.33 4.11502 25.517 3.95411 25.7375 3.855C26.0572 3.66674 26.352 3.43913 26.615 3.1775C26.815 2.9775 27.0025 2.7525 27.15 2.5H12.85C13 2.75 13.1825 2.9775 13.385 3.1775C13.6612 3.45196 13.9722 3.68898 14.31 3.8825Z" fill="#404040"/>
</g>
<defs>
<clipPath id="clip0_163_12870">
<rect width="40" height="40" fill="white"/>
</clipPath>
</defs>
</svg>
