<svg width="40" height="40" viewBox="0 0 40 40" fill="none" xmlns="http://www.w3.org/2000/svg">
<path d="M16.4949 12.5325C16.5501 12.5082 16.6106 12.4982 16.6707 12.5033C16.7308 12.5085 16.7887 12.5287 16.839 12.562C16.8892 12.5954 16.9303 12.6408 16.9584 12.6942C16.9866 12.7476 17.0008 12.8072 16.9999 12.8675V15.75C16.9999 16.0815 17.1316 16.3995 17.366 16.6339C17.6004 16.8683 17.9184 17 18.2499 17C19.9174 17 23.2824 17.0125 26.4999 19.055C28.9599 20.615 31.4749 23.455 32.9874 28.745C30.4374 26.2875 27.5249 24.955 24.9749 24.2475C23.4075 23.8146 21.7967 23.558 20.1724 23.4825C19.5075 23.4533 18.8416 23.46 18.1774 23.5025H18.1449L18.1324 23.505H18.1299L18.2499 24.75L18.1249 23.505C17.8164 23.536 17.5304 23.6806 17.3225 23.9107C17.1146 24.1408 16.9996 24.4399 16.9999 24.75V27.6325C16.9999 27.9025 16.7249 28.0725 16.4949 27.9675L6.5349 20.635C6.5011 20.6099 6.46605 20.5866 6.4299 20.565C6.37554 20.5324 6.33056 20.4862 6.29934 20.431C6.26811 20.3758 6.2517 20.3134 6.2517 20.25C6.2517 20.1866 6.26811 20.1243 6.29934 20.0691C6.33056 20.0139 6.37554 19.9677 6.4299 19.935C6.46606 19.9135 6.50111 19.8901 6.5349 19.865L16.4949 12.5325ZM19.4999 25.965C19.6699 25.965 19.8574 25.9725 20.0574 25.98C21.1424 26.03 22.6424 26.195 24.3074 26.6575C27.6224 27.5775 31.5474 29.6625 34.1574 34.3575C34.2985 34.611 34.5234 34.8074 34.7935 34.9132C35.0636 35.019 35.3621 35.0276 35.6379 34.9375C35.9136 34.8473 36.1494 34.6641 36.3048 34.4192C36.4603 34.1742 36.5257 33.8829 36.4899 33.595C35.3299 24.32 31.7749 19.44 27.8399 16.945C24.7274 14.97 21.5224 14.59 19.4999 14.5175V12.8675C19.5001 12.3527 19.3614 11.8473 19.0983 11.4048C18.8353 10.9623 18.4576 10.5989 18.0052 10.3532C17.5529 10.1074 17.0425 9.98829 16.5281 10.0084C16.0137 10.0285 15.5142 10.1872 15.0824 10.4675L5.0974 17.8175C4.6846 18.0752 4.34417 18.4337 4.10815 18.8592C3.87213 19.2848 3.74829 19.7634 3.74829 20.25C3.74829 20.7366 3.87213 21.2153 4.10815 21.6408C4.34417 22.0664 4.6846 22.4248 5.0974 22.6825L15.0824 30.0325C15.5142 30.3129 16.0137 30.4715 16.5281 30.4916C17.0425 30.5118 17.5529 30.3926 18.0052 30.1469C18.4576 29.9011 18.8353 29.5378 19.0983 29.0952C19.3614 28.6527 19.5001 28.1474 19.4999 27.6325V25.965Z" fill="#404040"/>
</svg>
