<svg width="40" height="40" viewBox="0 0 40 40" fill="none" xmlns="http://www.w3.org/2000/svg">
<g clip-path="url(#clip0_163_12855)">
<path fill-rule="evenodd" clip-rule="evenodd" d="M33.5867 19.9592C33.7031 19.8431 33.7954 19.7052 33.8584 19.5533C33.9215 19.4014 33.9539 19.2386 33.9539 19.0742C33.9539 18.9098 33.9215 18.747 33.8584 18.5951C33.7954 18.4433 33.7031 18.3053 33.5867 18.1892L26.0867 10.6892C25.8519 10.4545 25.5336 10.3226 25.2017 10.3226C24.8697 10.3226 24.5514 10.4545 24.3167 10.6892C24.0819 10.9239 23.9501 11.2423 23.9501 11.5742C23.9501 11.9062 24.0819 12.2245 24.3167 12.4592L29.6842 17.8242H7.70166C7.37014 17.8242 7.0522 17.9559 6.81778 18.1903C6.58336 18.4247 6.45166 18.7427 6.45166 19.0742C6.45166 19.4057 6.58336 19.7237 6.81778 19.9581C7.0522 20.1925 7.37014 20.3242 7.70166 20.3242H29.6842L24.3167 25.6892C24.0819 25.9239 23.9501 26.2423 23.9501 26.5742C23.9501 26.9062 24.0819 27.2245 24.3167 27.4592C24.5514 27.6939 24.8697 27.8258 25.2017 27.8258C25.5336 27.8258 25.8519 27.6939 26.0867 27.4592L33.5867 19.9592Z" fill="#404040"/>
</g>
<defs>
<clipPath id="clip0_163_12855">
<rect width="40" height="40" fill="white"/>
</clipPath>
</defs>
</svg>
