<svg width="40" height="40" viewBox="0 0 40 40" fill="none" xmlns="http://www.w3.org/2000/svg">
<path d="M37.2336 17.7384L37.2211 17.7329L3.85547 3.89382C3.57483 3.77636 3.26945 3.73029 2.96665 3.75974C2.66384 3.78919 2.37306 3.89324 2.12031 4.06257C1.85328 4.23755 1.63393 4.47617 1.48201 4.75696C1.33009 5.03775 1.25036 5.35191 1.25 5.67117V14.5219C1.25015 14.9584 1.40255 15.3811 1.68093 15.7173C1.95931 16.0534 2.34623 16.2819 2.775 16.3634L20.9727 19.7282C21.0442 19.7418 21.1087 19.7798 21.1551 19.8359C21.2015 19.892 21.2269 19.9625 21.2269 20.0352C21.2269 20.108 21.2015 20.1785 21.1551 20.2346C21.1087 20.2906 21.0442 20.3287 20.9727 20.3423L2.77578 23.7071C2.34713 23.7884 1.96023 24.0166 1.68172 24.3524C1.40322 24.6882 1.25055 25.1107 1.25 25.547V34.3993C1.24979 34.7041 1.32528 35.0043 1.46968 35.2728C1.61408 35.5413 1.82288 35.7697 2.07734 35.9376C2.38344 36.1409 2.74266 36.2496 3.11016 36.2501C3.36564 36.2499 3.61851 36.1986 3.85391 36.0993L37.2188 22.3391L37.2336 22.3321C37.6827 22.1391 38.0654 21.8186 38.3343 21.4104C38.6032 21.0022 38.7465 20.5241 38.7465 20.0352C38.7465 19.5464 38.6032 19.0683 38.3343 18.66C38.0654 18.2518 37.6827 17.9314 37.2336 17.7384Z" fill="#404040"/>
</svg>
