<svg width="40" height="40" viewBox="0 0 40 40" fill="none" xmlns="http://www.w3.org/2000/svg">
<path d="M20.4913 15.0242C19.4654 14.9229 18.4333 15.1411 17.5363 15.6491C16.6392 16.157 15.9211 16.9298 15.4802 17.8616C15.0393 18.7935 14.8973 19.8388 15.0734 20.8545C15.2496 21.8702 15.7354 22.8066 16.4643 23.5355C17.1933 24.2645 18.1297 24.7503 19.1454 24.9265C20.1611 25.1026 21.2064 24.9605 22.1383 24.5197C23.0701 24.0788 23.8429 23.3607 24.3508 22.4636C24.8587 21.5666 25.077 20.5345 24.9757 19.5086C24.8602 18.3586 24.3506 17.2839 23.5333 16.4666C22.716 15.6493 21.6413 15.1397 20.4913 15.0242V15.0242ZM32.5304 20C32.5272 20.5435 32.4872 21.0861 32.4108 21.6242L35.9429 24.3945C36.0967 24.522 36.2003 24.6999 36.2353 24.8966C36.2704 25.0933 36.2346 25.296 36.1343 25.4688L32.7929 31.25C32.6914 31.4211 32.5328 31.5509 32.345 31.6165C32.1572 31.6821 31.9522 31.6793 31.7663 31.6086L28.2585 30.1961C28.065 30.1191 27.8555 30.0912 27.6487 30.1151C27.4418 30.139 27.2441 30.2138 27.0733 30.3328C26.538 30.7015 25.9754 31.029 25.3905 31.3125C25.2066 31.4019 25.0476 31.5352 24.9274 31.7006C24.8072 31.866 24.7296 32.0584 24.7015 32.2609L24.1757 36.0023C24.1411 36.1999 24.0391 36.3794 23.8869 36.5101C23.7347 36.6407 23.5418 36.7145 23.3413 36.7188H16.6585C16.4612 36.7153 16.2711 36.6448 16.1193 36.5189C15.9674 36.3929 15.8631 36.219 15.8233 36.0258L15.2983 32.2898C15.2688 32.0851 15.1892 31.8908 15.0666 31.7243C14.9439 31.5577 14.782 31.424 14.5952 31.3352C14.011 31.0532 13.4503 30.7248 12.9186 30.3531C12.7484 30.2347 12.5514 30.1604 12.3453 30.1371C12.1392 30.1138 11.9306 30.1421 11.7382 30.2195L8.23114 31.6313C8.04529 31.702 7.84042 31.7049 7.65263 31.6395C7.46484 31.574 7.30617 31.4444 7.20458 31.2734L3.86317 25.4922C3.76271 25.3195 3.72681 25.1167 3.76186 24.92C3.79692 24.7233 3.90064 24.5454 4.05458 24.418L7.03973 22.0742C7.20328 21.9444 7.33181 21.7758 7.41367 21.5837C7.49553 21.3916 7.52812 21.1821 7.50848 20.9742C7.48036 20.6484 7.46317 20.3234 7.46317 19.9977C7.46317 19.6719 7.47958 19.3516 7.50848 19.0328C7.52597 18.8262 7.49178 18.6185 7.409 18.4284C7.32622 18.2382 7.19744 18.0717 7.03426 17.9437L4.05067 15.6C3.89923 15.4719 3.79769 15.2947 3.76384 15.0993C3.72999 14.9039 3.76598 14.7028 3.86552 14.5312L7.20692 8.75C7.30839 8.5789 7.46701 8.44911 7.65481 8.38351C7.84261 8.3179 8.04754 8.3207 8.23348 8.39141L11.7413 9.80391C11.9347 9.88093 12.1443 9.90875 12.3511 9.88489C12.5579 9.86103 12.7556 9.78623 12.9265 9.66719C13.4618 9.29853 14.0244 8.97103 14.6093 8.6875C14.7932 8.59812 14.9522 8.46485 15.0724 8.29944C15.1926 8.13403 15.2702 7.94157 15.2983 7.73906L15.8241 3.99766C15.8586 3.80006 15.9607 3.6206 16.1129 3.48993C16.2651 3.35926 16.4579 3.2855 16.6585 3.28125H23.3413C23.5385 3.28466 23.7287 3.35516 23.8805 3.48112C24.0323 3.60708 24.1367 3.781 24.1765 3.97422L24.7015 7.71016C24.7309 7.9149 24.8105 8.10918 24.9332 8.27573C25.0559 8.44229 25.2178 8.57595 25.4046 8.66484C25.9888 8.94684 26.5494 9.27524 27.0811 9.64688C27.2514 9.76532 27.4484 9.83955 27.6545 9.86287C27.8606 9.8862 28.0692 9.85788 28.2616 9.78047L31.7686 8.36875C31.9545 8.29798 32.1594 8.29506 32.3471 8.36052C32.5349 8.42597 32.6936 8.5556 32.7952 8.72656L36.1366 14.5078C36.2371 14.6805 36.273 14.8833 36.2379 15.08C36.2029 15.2767 36.0991 15.4546 35.9452 15.582L32.96 17.9258C32.7958 18.0552 32.6665 18.2236 32.584 18.4157C32.5014 18.6078 32.4682 18.8176 32.4874 19.0258C32.5132 19.3492 32.5304 19.6742 32.5304 20Z" stroke="#404040" stroke-width="1.9375" stroke-linecap="round" stroke-linejoin="round"/>
</svg>
