<svg width="40" height="40" viewBox="0 0 40 40" fill="none" xmlns="http://www.w3.org/2000/svg">
<path d="M15.8325 14.2151C15.8325 14.9901 16.04 15.6676 16.5075 16.2501H12.915C12.745 15.6312 12.6618 14.9918 12.6675 14.3501C12.6675 10.2826 16.2575 7.43005 21.3675 7.43005C26.29 7.43005 29.8425 10.3676 29.98 14.5551H26.905C26.63 11.8551 24.495 10.1976 21.28 10.1976C18.205 10.1976 15.83 11.7026 15.83 14.2151H15.8325ZM21.3175 32.9101C15.935 32.9101 12.345 30.1426 12.055 25.8851H15.13C15.49 28.5351 17.9525 30.1426 21.49 30.1426C24.84 30.1426 27.265 28.3801 27.265 25.9551C27.265 23.8876 25.8975 22.5201 22.48 21.7676L20.115 21.2501H2.5V18.7501H37.5V21.2501H28.74C29.91 22.3426 30.4275 23.7351 30.4275 25.4926C30.4275 30.0576 26.8375 32.9101 21.3175 32.9101Z" fill="#404040"/>
</svg>
