<svg width="40" height="40" viewBox="0 0 40 40" fill="none" xmlns="http://www.w3.org/2000/svg">
<path d="M8.75 8.75L10.3125 33.75C10.3867 35.1945 11.4375 36.25 12.8125 36.25H27.1875C28.568 36.25 29.5992 35.1945 29.6875 33.75L31.25 8.75" stroke="#404040" stroke-width="1.8125" stroke-linecap="round" stroke-linejoin="round"/>
<path d="M6.25 8.75H33.75H6.25Z" fill="#404040"/>
<path d="M6.25 8.75H33.75" stroke="#404040" stroke-width="1.8125" stroke-miterlimit="10" stroke-linecap="round"/>
<path d="M25.625 13.75L25 31.25M15 8.75001V5.62501C14.9993 5.37858 15.0473 5.13443 15.1413 4.90662C15.2352 4.67881 15.3733 4.47183 15.5476 4.29757C15.7218 4.12332 15.9288 3.98524 16.1566 3.89126C16.3844 3.79729 16.6286 3.74929 16.875 3.75001H23.125C23.3714 3.74929 23.6156 3.79729 23.8434 3.89126C24.0712 3.98524 24.2782 4.12332 24.4524 4.29757C24.6267 4.47183 24.7648 4.67881 24.8587 4.90662C24.9527 5.13443 25.0007 5.37858 25 5.62501V8.75001H15ZM20 13.75V31.25V13.75ZM14.375 13.75L15 31.25L14.375 13.75Z" stroke="#404040" stroke-width="1.8125" stroke-linecap="round" stroke-linejoin="round"/>
</svg>
